<?xml version="1.0" encoding="UTF-8" standalone="no"?>
<!DOCTYPE svg PUBLIC "-//W3C//DTD SVG 1.1//EN"
 "http://www.w3.org/Graphics/SVG/1.1/DTD/svg11.dtd">
<!-- Generated by graphviz version 2.43.0 (0)
 -->
<!-- Title: m4a&#45;mb/include/board.h Pages: 1 -->
<svg width="219pt" height="140pt"
 viewBox="0.00 0.00 219.00 140.00" xmlns="http://www.w3.org/2000/svg" xmlns:xlink="http://www.w3.org/1999/xlink">
<g id="graph0" class="graph" transform="scale(1 1) rotate(0) translate(4 136)">
<title>m4a&#45;mb/include/board.h</title>
<!-- Node1 -->
<g id="node1" class="node">
<title>Node1</title>
<g id="a_node1"><a xlink:title="Board specific definitions for the M4A&#45;MB.">
<polygon fill="#bfbfbf" stroke="black" points="22.5,-112.5 22.5,-131.5 158.5,-131.5 158.5,-112.5 22.5,-112.5"/>
<text text-anchor="middle" x="90.5" y="-119.5" font-family="Helvetica,sans-Serif" font-size="10.00">m4a&#45;mb/include/board.h</text>
</a>
</g>
</g>
<!-- Node2 -->
<g id="node2" class="node">
<title>Node2</title>
<g id="a_node2"><a xlink:title=" ">
<polygon fill="none" stroke="#bfbfbf" points="0,-0.5 0,-19.5 43,-19.5 43,-0.5 0,-0.5"/>
<text text-anchor="middle" x="21.5" y="-7.5" font-family="Helvetica,sans-Serif" font-size="10.00">cpu.h</text>
</a>
</g>
</g>
<!-- Node1&#45;&gt;Node2 -->
<g id="edge1" class="edge">
<title>Node1&#45;&gt;Node2</title>
<path fill="none" stroke="midnightblue" d="M77.13,-112.19C65.8,-104.08 49.95,-91.03 40.5,-76 31.6,-61.85 26.73,-43.36 24.15,-29.73"/>
<polygon fill="midnightblue" stroke="midnightblue" points="27.57,-28.91 22.49,-19.61 20.66,-30.05 27.57,-28.91"/>
</g>
<!-- Node3 -->
<g id="node3" class="node">
<title>Node3</title>
<g id="a_node3"><a xlink:href="periph__conf_8h.html" target="_top" xlink:title="Peripheral MCU configuration for m4a_mb.">
<polygon fill="none" stroke="black" points="49.5,-56.5 49.5,-75.5 131.5,-75.5 131.5,-56.5 49.5,-56.5"/>
<text text-anchor="middle" x="90.5" y="-63.5" font-family="Helvetica,sans-Serif" font-size="10.00">periph_conf.h</text>
</a>
</g>
</g>
<!-- Node1&#45;&gt;Node3 -->
<g id="edge2" class="edge">
<title>Node1&#45;&gt;Node3</title>
<path fill="none" stroke="midnightblue" d="M90.5,-112.08C90.5,-105.01 90.5,-94.86 90.5,-85.99"/>
<polygon fill="midnightblue" stroke="midnightblue" points="94,-85.75 90.5,-75.75 87,-85.75 94,-85.75"/>
</g>
<!-- Node5 -->
<g id="node5" class="node">
<title>Node5</title>
<g id="a_node5"><a xlink:title=" ">
<polygon fill="none" stroke="#bfbfbf" points="132,-0.5 132,-19.5 211,-19.5 211,-0.5 132,-0.5"/>
<text text-anchor="middle" x="171.5" y="-7.5" font-family="Helvetica,sans-Serif" font-size="10.00">periph_cpu.h</text>
</a>
</g>
</g>
<!-- Node1&#45;&gt;Node5 -->
<g id="edge6" class="edge">
<title>Node1&#45;&gt;Node5</title>
<path fill="none" stroke="midnightblue" d="M102.44,-112.45C113.42,-104.11 129.6,-90.6 140.5,-76 151.24,-61.61 159.69,-42.91 165.03,-29.27"/>
<polygon fill="midnightblue" stroke="midnightblue" points="168.43,-30.18 168.64,-19.58 161.87,-27.73 168.43,-30.18"/>
</g>
<!-- Node3&#45;&gt;Node2 -->
<g id="edge4" class="edge">
<title>Node3&#45;&gt;Node2</title>
<path fill="none" stroke="midnightblue" d="M79.41,-56.32C69.01,-48.18 53.24,-35.84 40.78,-26.09"/>
<polygon fill="midnightblue" stroke="midnightblue" points="42.82,-23.24 32.79,-19.83 38.51,-28.75 42.82,-23.24"/>
</g>
<!-- Node4 -->
<g id="node4" class="node">
<title>Node4</title>
<g id="a_node4"><a xlink:title=" ">
<polygon fill="none" stroke="#bfbfbf" points="61,-0.5 61,-19.5 114,-19.5 114,-0.5 61,-0.5"/>
<text text-anchor="middle" x="87.5" y="-7.5" font-family="Helvetica,sans-Serif" font-size="10.00">stdint.h</text>
</a>
</g>
</g>
<!-- Node3&#45;&gt;Node4 -->
<g id="edge3" class="edge">
<title>Node3&#45;&gt;Node4</title>
<path fill="none" stroke="midnightblue" d="M90,-56.08C89.61,-49.01 89.05,-38.86 88.55,-29.99"/>
<polygon fill="midnightblue" stroke="midnightblue" points="92.04,-29.54 87.99,-19.75 85.05,-29.93 92.04,-29.54"/>
</g>
<!-- Node3&#45;&gt;Node5 -->
<g id="edge5" class="edge">
<title>Node3&#45;&gt;Node5</title>
<path fill="none" stroke="midnightblue" d="M103.51,-56.32C116.03,-47.98 135.18,-35.21 149.97,-25.35"/>
<polygon fill="midnightblue" stroke="midnightblue" points="152.14,-28.11 158.52,-19.65 148.26,-22.29 152.14,-28.11"/>
</g>
</g>
</svg>
