<?xml version="1.0" encoding="UTF-8" standalone="no"?>
<!DOCTYPE svg PUBLIC "-//W3C//DTD SVG 1.1//EN"
 "http://www.w3.org/Graphics/SVG/1.1/DTD/svg11.dtd">
<!-- Generated by graphviz version 2.43.0 (0)
 -->
<!-- Title: m4a&#45;mb/include/board.h Pages: 1 -->
<svg width="250pt" height="146pt"
 viewBox="0.00 0.00 250.00 146.00" xmlns="http://www.w3.org/2000/svg" xmlns:xlink="http://www.w3.org/1999/xlink">
<g id="graph0" class="graph" transform="scale(1 1) rotate(0) translate(4 142)">
<title>m4a&#45;mb/include/board.h</title>
<!-- Node1 -->
<g id="node1" class="node">
<title>Node1</title>
<g id="a_node1"><a xlink:title="Board specific definitions for the M4A&#45;MB.">
<polygon fill="#bfbfbf" stroke="black" points="20,-116.5 20,-137.5 184,-137.5 184,-116.5 20,-116.5"/>
<text text-anchor="middle" x="102" y="-123.9" font-family="Helvetica,sans-Serif" font-size="12.00">m4a&#45;mb/include/board.h</text>
</a>
</g>
</g>
<!-- Node2 -->
<g id="node2" class="node">
<title>Node2</title>
<g id="a_node2"><a xlink:title=" ">
<polygon fill="none" stroke="#bfbfbf" points="0,-0.5 0,-21.5 50,-21.5 50,-0.5 0,-0.5"/>
<text text-anchor="middle" x="25" y="-7.9" font-family="Helvetica,sans-Serif" font-size="12.00">cpu.h</text>
</a>
</g>
</g>
<!-- Node1&#45;&gt;Node2 -->
<g id="edge1" class="edge">
<title>Node1&#45;&gt;Node2</title>
<path fill="none" stroke="midnightblue" d="M84.83,-116.48C71.79,-108.39 54.38,-95.63 44,-80 34.37,-65.5 29.57,-46.16 27.22,-31.81"/>
<polygon fill="midnightblue" stroke="midnightblue" points="30.64,-30.99 25.8,-21.56 23.7,-31.95 30.64,-30.99"/>
</g>
<!-- Node3 -->
<g id="node3" class="node">
<title>Node3</title>
<g id="a_node3"><a xlink:href="m4a-mb_2include_2periph__conf_8h.html" target="_top" xlink:title="Peripheral MCU configuration for m4a_mb board.">
<polygon fill="none" stroke="black" points="53.5,-58.5 53.5,-79.5 150.5,-79.5 150.5,-58.5 53.5,-58.5"/>
<text text-anchor="middle" x="102" y="-65.9" font-family="Helvetica,sans-Serif" font-size="12.00">periph_conf.h</text>
</a>
</g>
</g>
<!-- Node1&#45;&gt;Node3 -->
<g id="edge2" class="edge">
<title>Node1&#45;&gt;Node3</title>
<path fill="none" stroke="midnightblue" d="M102,-116.25C102,-108.94 102,-98.69 102,-89.7"/>
<polygon fill="midnightblue" stroke="midnightblue" points="105.5,-89.64 102,-79.64 98.5,-89.64 105.5,-89.64"/>
</g>
<!-- Node5 -->
<g id="node5" class="node">
<title>Node5</title>
<g id="a_node5"><a xlink:title=" ">
<polygon fill="none" stroke="#bfbfbf" points="148,-0.5 148,-21.5 242,-21.5 242,-0.5 148,-0.5"/>
<text text-anchor="middle" x="195" y="-7.9" font-family="Helvetica,sans-Serif" font-size="12.00">periph_cpu.h</text>
</a>
</g>
</g>
<!-- Node1&#45;&gt;Node5 -->
<g id="edge6" class="edge">
<title>Node1&#45;&gt;Node5</title>
<path fill="none" stroke="midnightblue" d="M116.98,-116.44C129.38,-107.98 146.87,-94.72 159,-80 171.31,-65.07 181.21,-45.27 187.49,-30.88"/>
<polygon fill="midnightblue" stroke="midnightblue" points="190.78,-32.09 191.41,-21.52 184.32,-29.39 190.78,-32.09"/>
</g>
<!-- Node3&#45;&gt;Node2 -->
<g id="edge4" class="edge">
<title>Node3&#45;&gt;Node2</title>
<path fill="none" stroke="midnightblue" d="M88.59,-58.25C76.99,-49.81 60.03,-37.47 46.53,-27.66"/>
<polygon fill="midnightblue" stroke="midnightblue" points="48.4,-24.69 38.26,-21.64 44.29,-30.36 48.4,-24.69"/>
</g>
<!-- Node4 -->
<g id="node4" class="node">
<title>Node4</title>
<g id="a_node4"><a xlink:title=" ">
<polygon fill="none" stroke="#bfbfbf" points="68.5,-0.5 68.5,-21.5 129.5,-21.5 129.5,-0.5 68.5,-0.5"/>
<text text-anchor="middle" x="99" y="-7.9" font-family="Helvetica,sans-Serif" font-size="12.00">stdint.h</text>
</a>
</g>
</g>
<!-- Node3&#45;&gt;Node4 -->
<g id="edge3" class="edge">
<title>Node3&#45;&gt;Node4</title>
<path fill="none" stroke="midnightblue" d="M101.48,-58.25C101.09,-50.94 100.54,-40.69 100.06,-31.7"/>
<polygon fill="midnightblue" stroke="midnightblue" points="103.55,-31.44 99.52,-21.64 96.56,-31.82 103.55,-31.44"/>
</g>
<!-- Node3&#45;&gt;Node5 -->
<g id="edge5" class="edge">
<title>Node3&#45;&gt;Node5</title>
<path fill="none" stroke="midnightblue" d="M118.2,-58.25C132.6,-49.57 153.87,-36.76 170.38,-26.82"/>
<polygon fill="midnightblue" stroke="midnightblue" points="172.22,-29.8 178.99,-21.64 168.61,-23.8 172.22,-29.8"/>
</g>
</g>
</svg>
