<?xml version="1.0" encoding="UTF-8" standalone="no"?>
<!DOCTYPE svg PUBLIC "-//W3C//DTD SVG 1.1//EN"
 "http://www.w3.org/Graphics/SVG/1.1/DTD/svg11.dtd">
<!-- Generated by graphviz version 2.43.0 (0)
 -->
<!-- Title: m4a&#45;mb/include/periph_conf.h Pages: 1 -->
<svg width="172pt" height="172pt"
 viewBox="0.00 0.00 172.00 172.00" xmlns="http://www.w3.org/2000/svg" xmlns:xlink="http://www.w3.org/1999/xlink">
<g id="graph0" class="graph" transform="scale(1 1) rotate(0) translate(4 168)">
<title>m4a&#45;mb/include/periph_conf.h</title>
<!-- Node1 -->
<g id="node1" class="node">
<title>Node1</title>
<g id="a_node1"><a xlink:title="Peripheral MCU configuration for m4a_mb board.">
<polygon fill="#bfbfbf" stroke="black" points="4,-129.5 4,-163.5 160,-163.5 160,-129.5 4,-129.5"/>
<text text-anchor="start" x="12" y="-149.9" font-family="Helvetica,sans-Serif" font-size="12.00">m4a&#45;mb/include/periph</text>
<text text-anchor="middle" x="82" y="-136.9" font-family="Helvetica,sans-Serif" font-size="12.00">_conf.h</text>
</a>
</g>
</g>
<!-- Node2 -->
<g id="node2" class="node">
<title>Node2</title>
<g id="a_node2"><a xlink:href="m4a-mb_2include_2board_8h.html" target="_top" xlink:title="Board specific definitions for the M4A&#45;MB.">
<polygon fill="none" stroke="black" points="0,-71.5 0,-92.5 164,-92.5 164,-71.5 0,-71.5"/>
<text text-anchor="middle" x="82" y="-78.9" font-family="Helvetica,sans-Serif" font-size="12.00">m4a&#45;mb/include/board.h</text>
</a>
</g>
</g>
<!-- Node1&#45;&gt;Node2 -->
<g id="edge1" class="edge">
<title>Node1&#45;&gt;Node2</title>
<path fill="none" stroke="midnightblue" d="M82,-119.28C82,-109.91 82,-99.92 82,-92.8"/>
<polygon fill="midnightblue" stroke="midnightblue" points="78.5,-119.4 82,-129.4 85.5,-119.4 78.5,-119.4"/>
</g>
<!-- Node3 -->
<g id="node3" class="node">
<title>Node3</title>
<g id="a_node3"><a xlink:href="m4a-mb_2include_2gpio__params_8h.html" target="_top" xlink:title="Board specific configuration of direct mapped GPIOs.">
<polygon fill="none" stroke="black" points="10.5,-0.5 10.5,-34.5 153.5,-34.5 153.5,-0.5 10.5,-0.5"/>
<text text-anchor="start" x="18.5" y="-20.9" font-family="Helvetica,sans-Serif" font-size="12.00">m4a&#45;mb/include/gpio</text>
<text text-anchor="middle" x="82" y="-7.9" font-family="Helvetica,sans-Serif" font-size="12.00">_params.h</text>
</a>
</g>
</g>
<!-- Node2&#45;&gt;Node3 -->
<g id="edge2" class="edge">
<title>Node2&#45;&gt;Node3</title>
<path fill="none" stroke="midnightblue" d="M82,-61.07C82,-52.58 82,-42.8 82,-34.76"/>
<polygon fill="midnightblue" stroke="midnightblue" points="78.5,-61.23 82,-71.23 85.5,-61.23 78.5,-61.23"/>
</g>
</g>
</svg>
