<?xml version="1.0" encoding="UTF-8" standalone="no"?>
<!DOCTYPE svg PUBLIC "-//W3C//DTD SVG 1.1//EN"
 "http://www.w3.org/Graphics/SVG/1.1/DTD/svg11.dtd">
<!-- Generated by graphviz version 2.43.0 (0)
 -->
<!-- Title: m4a&#45;24g/include/periph_conf.h Pages: 1 -->
<svg width="175pt" height="172pt"
 viewBox="0.00 0.00 175.00 172.00" xmlns="http://www.w3.org/2000/svg" xmlns:xlink="http://www.w3.org/1999/xlink">
<g id="graph0" class="graph" transform="scale(1 1) rotate(0) translate(4 168)">
<title>m4a&#45;24g/include/periph_conf.h</title>
<!-- Node1 -->
<g id="node1" class="node">
<title>Node1</title>
<g id="a_node1"><a xlink:title="Configuration of CPU peripherals for the m4a&#45;24g board.">
<polygon fill="#bfbfbf" stroke="black" points="4,-129.5 4,-163.5 163,-163.5 163,-129.5 4,-129.5"/>
<text text-anchor="start" x="12" y="-149.9" font-family="Helvetica,sans-Serif" font-size="12.00">m4a&#45;24g/include/periph</text>
<text text-anchor="middle" x="83.5" y="-136.9" font-family="Helvetica,sans-Serif" font-size="12.00">_conf.h</text>
</a>
</g>
</g>
<!-- Node2 -->
<g id="node2" class="node">
<title>Node2</title>
<g id="a_node2"><a xlink:href="m4a-24g_2include_2board_8h.html" target="_top" xlink:title="Board specific definitions for the M4A&#45;24G board.">
<polygon fill="none" stroke="black" points="0,-71.5 0,-92.5 167,-92.5 167,-71.5 0,-71.5"/>
<text text-anchor="middle" x="83.5" y="-78.9" font-family="Helvetica,sans-Serif" font-size="12.00">m4a&#45;24g/include/board.h</text>
</a>
</g>
</g>
<!-- Node1&#45;&gt;Node2 -->
<g id="edge1" class="edge">
<title>Node1&#45;&gt;Node2</title>
<path fill="none" stroke="midnightblue" d="M83.5,-119.28C83.5,-109.91 83.5,-99.92 83.5,-92.8"/>
<polygon fill="midnightblue" stroke="midnightblue" points="80,-119.4 83.5,-129.4 87,-119.4 80,-119.4"/>
</g>
<!-- Node3 -->
<g id="node3" class="node">
<title>Node3</title>
<g id="a_node3"><a xlink:href="m4a-24g_2include_2gpio__params_8h.html" target="_top" xlink:title="Board specific configuration of direct mapped GPIOs.">
<polygon fill="none" stroke="black" points="10.5,-0.5 10.5,-34.5 156.5,-34.5 156.5,-0.5 10.5,-0.5"/>
<text text-anchor="start" x="18.5" y="-20.9" font-family="Helvetica,sans-Serif" font-size="12.00">m4a&#45;24g/include/gpio</text>
<text text-anchor="middle" x="83.5" y="-7.9" font-family="Helvetica,sans-Serif" font-size="12.00">_params.h</text>
</a>
</g>
</g>
<!-- Node2&#45;&gt;Node3 -->
<g id="edge2" class="edge">
<title>Node2&#45;&gt;Node3</title>
<path fill="none" stroke="midnightblue" d="M83.5,-61.07C83.5,-52.58 83.5,-42.8 83.5,-34.76"/>
<polygon fill="midnightblue" stroke="midnightblue" points="80,-61.23 83.5,-71.23 87,-61.23 80,-61.23"/>
</g>
</g>
</svg>
