<?xml version="1.0" encoding="UTF-8" standalone="no"?>
<!DOCTYPE svg PUBLIC "-//W3C//DTD SVG 1.1//EN"
 "http://www.w3.org/Graphics/SVG/1.1/DTD/svg11.dtd">
<!-- Generated by graphviz version 2.43.0 (0)
 -->
<!-- Title: m4a&#45;mb/include/periph_conf.h Pages: 1 -->
<svg width="144pt" height="162pt"
 viewBox="0.00 0.00 144.00 162.00" xmlns="http://www.w3.org/2000/svg" xmlns:xlink="http://www.w3.org/1999/xlink">
<g id="graph0" class="graph" transform="scale(1 1) rotate(0) translate(4 158)">
<title>m4a&#45;mb/include/periph_conf.h</title>
<!-- Node1 -->
<g id="node1" class="node">
<title>Node1</title>
<g id="a_node1"><a xlink:title="Peripheral MCU configuration for m4a_mb.">
<polygon fill="#bfbfbf" stroke="black" points="3,-123.5 3,-153.5 133,-153.5 133,-123.5 3,-123.5"/>
<text text-anchor="start" x="11" y="-141.5" font-family="Helvetica,sans-Serif" font-size="10.00">m4a&#45;mb/include/periph</text>
<text text-anchor="middle" x="68" y="-130.5" font-family="Helvetica,sans-Serif" font-size="10.00">_conf.h</text>
</a>
</g>
</g>
<!-- Node2 -->
<g id="node2" class="node">
<title>Node2</title>
<g id="a_node2"><a xlink:href="board_8h.html" target="_top" xlink:title="Board specific definitions for the M4A&#45;MB.">
<polygon fill="none" stroke="black" points="0,-67.5 0,-86.5 136,-86.5 136,-67.5 0,-67.5"/>
<text text-anchor="middle" x="68" y="-74.5" font-family="Helvetica,sans-Serif" font-size="10.00">m4a&#45;mb/include/board.h</text>
</a>
</g>
</g>
<!-- Node1&#45;&gt;Node2 -->
<g id="edge1" class="edge">
<title>Node1&#45;&gt;Node2</title>
<path fill="none" stroke="midnightblue" d="M68,-113.29C68,-103.86 68,-93.65 68,-86.66"/>
<polygon fill="midnightblue" stroke="midnightblue" points="64.5,-113.4 68,-123.4 71.5,-113.4 64.5,-113.4"/>
</g>
<!-- Node3 -->
<g id="node3" class="node">
<title>Node3</title>
<g id="a_node3"><a xlink:href="gpio__params_8h.html" target="_top" xlink:title="Board specific configuration of direct mapped GPIOs.">
<polygon fill="none" stroke="black" points="8,-0.5 8,-30.5 128,-30.5 128,-0.5 8,-0.5"/>
<text text-anchor="start" x="16" y="-18.5" font-family="Helvetica,sans-Serif" font-size="10.00">m4a&#45;mb/include/gpio</text>
<text text-anchor="middle" x="68" y="-7.5" font-family="Helvetica,sans-Serif" font-size="10.00">_params.h</text>
</a>
</g>
</g>
<!-- Node2&#45;&gt;Node3 -->
<g id="edge2" class="edge">
<title>Node2&#45;&gt;Node3</title>
<path fill="none" stroke="midnightblue" d="M68,-57.23C68,-48.59 68,-38.5 68,-30.52"/>
<polygon fill="midnightblue" stroke="midnightblue" points="64.5,-57.48 68,-67.48 71.5,-57.48 64.5,-57.48"/>
</g>
</g>
</svg>
