<?xml version="1.0" encoding="UTF-8" standalone="no"?>
<!DOCTYPE svg PUBLIC "-//W3C//DTD SVG 1.1//EN"
 "http://www.w3.org/Graphics/SVG/1.1/DTD/svg11.dtd">
<!-- Generated by graphviz version 2.43.0 (0)
 -->
<!-- Title: m4a&#45;mb/include/periph_conf.h Pages: 1 -->
<svg width="358pt" height="172pt"
 viewBox="0.00 0.00 357.50 172.00" xmlns="http://www.w3.org/2000/svg" xmlns:xlink="http://www.w3.org/1999/xlink">
<g id="graph0" class="graph" transform="scale(1 1) rotate(0) translate(4 168)">
<title>m4a&#45;mb/include/periph_conf.h</title>
<!-- Node1 -->
<g id="node1" class="node">
<title>Node1</title>
<g id="a_node1"><a xlink:title="Peripheral MCU configuration for m4a_mb board.">
<polygon fill="#bfbfbf" stroke="black" points="97.5,-129.5 97.5,-163.5 253.5,-163.5 253.5,-129.5 97.5,-129.5"/>
<text text-anchor="start" x="105.5" y="-149.9" font-family="Helvetica,sans-Serif" font-size="12.00">m4a&#45;mb/include/periph</text>
<text text-anchor="middle" x="175.5" y="-136.9" font-family="Helvetica,sans-Serif" font-size="12.00">_conf.h</text>
</a>
</g>
</g>
<!-- Node2 -->
<g id="node2" class="node">
<title>Node2</title>
<g id="a_node2"><a xlink:href="m4a-24g_2include_2board_8h.html" target="_top" xlink:title="Board specific definitions for the M4A&#45;24G board.">
<polygon fill="none" stroke="black" points="0,-71.5 0,-92.5 167,-92.5 167,-71.5 0,-71.5"/>
<text text-anchor="middle" x="83.5" y="-78.9" font-family="Helvetica,sans-Serif" font-size="12.00">m4a&#45;24g/include/board.h</text>
</a>
</g>
</g>
<!-- Node1&#45;&gt;Node2 -->
<g id="edge1" class="edge">
<title>Node1&#45;&gt;Node2</title>
<path fill="none" stroke="midnightblue" d="M143.42,-123.71C127.8,-113.1 109.82,-100.88 97.66,-92.62"/>
<polygon fill="midnightblue" stroke="midnightblue" points="141.57,-126.68 151.81,-129.4 145.5,-120.89 141.57,-126.68"/>
</g>
<!-- Node3 -->
<g id="node3" class="node">
<title>Node3</title>
<g id="a_node3"><a xlink:href="m4a-mb_2include_2board_8h.html" target="_top" xlink:title="Board specific definitions for the M4A&#45;MB.">
<polygon fill="none" stroke="black" points="185.5,-71.5 185.5,-92.5 349.5,-92.5 349.5,-71.5 185.5,-71.5"/>
<text text-anchor="middle" x="267.5" y="-78.9" font-family="Helvetica,sans-Serif" font-size="12.00">m4a&#45;mb/include/board.h</text>
</a>
</g>
</g>
<!-- Node1&#45;&gt;Node3 -->
<g id="edge2" class="edge">
<title>Node1&#45;&gt;Node3</title>
<path fill="none" stroke="midnightblue" d="M207.58,-123.71C223.2,-113.1 241.18,-100.88 253.34,-92.62"/>
<polygon fill="midnightblue" stroke="midnightblue" points="205.5,-120.89 199.19,-129.4 209.43,-126.68 205.5,-120.89"/>
</g>
<!-- Node4 -->
<g id="node4" class="node">
<title>Node4</title>
<g id="a_node4"><a xlink:href="gpio__params_8h.html" target="_top" xlink:title="Board specific configuration of direct mapped GPIOs.">
<polygon fill="none" stroke="black" points="196,-0.5 196,-34.5 339,-34.5 339,-0.5 196,-0.5"/>
<text text-anchor="start" x="204" y="-20.9" font-family="Helvetica,sans-Serif" font-size="12.00">m4a&#45;mb/include/gpio</text>
<text text-anchor="middle" x="267.5" y="-7.9" font-family="Helvetica,sans-Serif" font-size="12.00">_params.h</text>
</a>
</g>
</g>
<!-- Node3&#45;&gt;Node4 -->
<g id="edge3" class="edge">
<title>Node3&#45;&gt;Node4</title>
<path fill="none" stroke="midnightblue" d="M267.5,-61.07C267.5,-52.58 267.5,-42.8 267.5,-34.76"/>
<polygon fill="midnightblue" stroke="midnightblue" points="264,-61.23 267.5,-71.23 271,-61.23 264,-61.23"/>
</g>
</g>
</svg>
